<?xml version="1.0"?>
<svg width="615.034" height="606.872" xmlns="http://www.w3.org/2000/svg" xmlns:svg="http://www.w3.org/2000/svg" xmlns:xlink="http://www.w3.org/1999/xlink">
 <g class="layer">
  <title>Layer 1</title>
  <path d="m703.5,524.6c-10.9,-23.9 -39.12,-34.43 -63.03,-23.52s-34.43,39.12 -23.52,63.03s39.12,34.43 63.03,23.52a47.58,47.58 0 0 0 22.91,-22.24l-9.51,-4.51c-9.08,18.3 -31.28,25.77 -49.58,16.69s-25.77,-31.28 -16.69,-49.58c9.09,-18.3 31.28,-25.77 49.58,-16.69a36.99,36.99 0 0 1 17.23,17.82l9.58,-4.52z" fill="#A7A8AB" id="svg_1"/>
  <path d="m601.5,590l0,-91.2l-11.96,0l-37.04,75.19l-37.04,-75.19l-12.11,0l0,91.2l10.63,0l0,-69.37l34.26,69.37l8.52,0l34.24,-69.37l0,69.37l10.5,0z" fill="#A7A8AB" id="svg_6"/>
  <path d="m393.97,531.31a27.02,27.02 0 0 0 -20.14,-8.52a25.88,25.88 0 0 0 -10.6,2.12a40.61,40.61 0 0 0 -9.23,5.71l0,-6.88l-10.79,0l0,66.28l10.79,0l0,-37.7a19.73,19.73 0 0 1 5.3,-14.03c7.39,-7.5 19.46,-7.59 26.97,-0.2l0.21,0.2a19.78,19.78 0 0 1 5.3,13.98l0,37.68l10.48,0l0,-38.24a28.35,28.35 0 0 0 -8.26,-20.4m-143.15,40.79a31.64,31.64 0 0 1 -12.39,13.18a34.52,34.52 0 0 1 -17.85,4.72l-16.01,0l0,21.87l-10.2,0l0,-88.13l25.75,0a34.19,34.19 0 0 1 24.4,9.58c10.57,10.05 13.15,25.91 6.3,38.78m-46.25,8.26l14.71,0a24.18,24.18 0 0 0 17.18,-6.73a21.9,21.9 0 0 0 7.04,-16.67a21.36,21.36 0 0 0 -6.88,-16.34a24.04,24.04 0 0 0 -17.03,-6.4l-15.02,0l0,46.14zm129.77,-20.11a11.65,11.65 0 0 0 0.35,-3.47c0,-18.82 -15.98,-34.06 -35.69,-34.06c-19.71,0 -35.69,15.29 -35.69,34.06c0,18.76 15.98,34.06 35.69,34.06a35.7,35.7 0 0 0 30.42,-16.62l-8.29,-6.25a25.21,25.21 0 0 1 -22.13,12.75c-13.25,0.75 -24.61,-9.39 -25.36,-22.65s9.4,-24.61 22.65,-25.36a23.58,23.58 0 0 1 2.71,0a24.98,24.98 0 0 1 23.84,16.68c0,0.17 0.38,1.6 0.43,1.78l-39.54,0l0,8.97l50.61,0.11zm-161.26,-15.86c0,20.46 -16.58,37.04 -37.04,37.04c-20.46,0 -37.04,-16.58 -37.04,-37.04c0,-20.46 16.58,-37.04 37.04,-37.04c20.46,0 37.04,16.58 37.04,37.04m10.51,0c0,-26.27 -21.3,-47.57 -47.58,-47.57s-47.57,21.29 -47.57,47.57c0,26.27 21.3,47.57 47.57,47.57s47.58,-21.3 47.58,-47.57" fill="#636567" id="svg_7"/>
  <path d="m482.06,562.64c0.03,9.54 -7.68,17.29 -17.21,17.31l-39.47,0l0,-34.62l39.49,0c9.53,0.04 17.23,7.79 17.21,17.31m-5.84,-40.61c0,7.12 -5.75,12.91 -12.87,12.95l-37.96,0l0,-25.93l37.86,0c7.13,0.03 12.89,5.82 12.87,12.95m2.4,17.09c9.51,-8.38 10.43,-22.88 2.05,-32.39a22.95,22.95 0 0 0 -16.56,-7.77l-49.2,0l0,91.14l52.06,0c15.06,-1.11 26.38,-14.22 25.26,-29.29a27.36,27.36 0 0 0 -13.59,-21.67" fill="#A7A8AB" id="svg_8"/>
  <g fill="#99C248" id="svg_9">
   <path d="m101.05,479.66l8.65,-50.5l14.19,0c3.79,0 6.49,0.24 8.1,0.72c2.5,0.74 4.43,2.1 5.79,4.1c1.35,2 2.03,4.47 2.03,7.41c0,2.96 -0.65,5.44 -1.96,7.44s-3.28,3.51 -5.89,4.54c2.04,0.69 3.68,1.93 4.9,3.73c1.23,1.79 1.85,3.88 1.85,6.27c0,3.26 -0.74,6.21 -2.22,8.85c-1.49,2.64 -3.42,4.54 -5.79,5.7c-2.38,1.16 -5.75,1.74 -10.11,1.74l-19.54,0zm9.89,-8.13l8.21,0c3.22,0 5.43,-0.23 6.63,-0.69c1.2,-0.46 2.2,-1.3 3,-2.53s1.21,-2.61 1.21,-4.15c0,-1.82 -0.53,-3.24 -1.58,-4.27s-2.73,-1.56 -5,-1.56l-10.2,0l-2.27,13.2zm3.78,-21.98l6.52,0c2.85,0 4.89,-0.23 6.13,-0.69a5.74,5.74 0 0 0 2.93,-2.37c0.71,-1.13 1.07,-2.42 1.07,-3.86c0,-1.17 -0.27,-2.17 -0.79,-2.98s-1.2,-1.36 -2,-1.64c-0.81,-0.27 -2.54,-0.41 -5.21,-0.41l-6.59,0l-2.06,11.95zm33.45,-6.48l8.15,0l-3.71,21.59c-0.44,2.59 -0.65,4.21 -0.65,4.87c0,1.12 0.32,2.06 0.97,2.8c0.65,0.75 1.44,1.13 2.37,1.13c1.09,0 2.17,-0.39 3.24,-1.17c1.5,-1.08 2.69,-2.49 3.58,-4.22c0.89,-1.74 1.65,-4.26 2.27,-7.57l3.25,-17.43l8.14,0l-6.79,36.59l-7.61,0l0.9,-4.96c-3.3,3.85 -6.86,5.78 -10.68,5.78c-2.41,0 -4.33,-0.84 -5.75,-2.53c-1.42,-1.69 -2.13,-4.01 -2.13,-6.97c0,-1.24 0.32,-3.75 0.97,-7.51l3.48,-20.4zm36.01,0l8.1,0l-6.28,36.59l-8.09,0l6.27,-36.59zm2.38,-13.91l8.13,0l-1.55,8.95l-8.1,0l1.52,-8.95zm7.54,50.5l8.65,-50.5l8.13,0l-8.69,50.5l-8.09,0zm17.6,-29.25l1.32,-7.34l4.19,0l1.02,-5.85l9.45,-6.92l-2.32,12.77l5.12,0l-1.25,7.34l-5.2,0l-2.84,15.28c-0.49,2.75 -0.73,4.35 -0.73,4.79c0,0.82 0.22,1.43 0.65,1.83c0.44,0.4 1.19,0.6 2.26,0.6c0.34,0 1.27,-0.08 2.8,-0.24l-1.34,7.33a19.84,19.84 0 0 1 -4.35,0.49c-2.82,0 -4.93,-0.65 -6.33,-1.93s-2.1,-3.17 -2.1,-5.65c0,-1.15 0.37,-3.75 1.1,-7.79l2.7,-14.71l-4.15,0zm34.93,14.06c0,-6 1.36,-11.1 4.07,-15.3c3.01,-4.61 7.36,-6.92 13.05,-6.92c4.28,0 7.68,1.44 10.22,4.34c2.54,2.89 3.81,6.92 3.81,12.09c0,6.06 -1.58,11.21 -4.74,15.45c-3.16,4.24 -7.29,6.36 -12.39,6.36c-4.15,0 -7.53,-1.44 -10.12,-4.31c-2.6,-2.87 -3.9,-6.78 -3.9,-11.71zm23.12,-7.07c0,-2.41 -0.57,-4.3 -1.71,-5.68c-1.14,-1.38 -2.58,-2.07 -4.33,-2.07c-1.48,0 -2.86,0.51 -4.15,1.52c-1.29,1.01 -2.41,2.77 -3.38,5.27a21.43,21.43 0 0 0 -1.45,7.79c0,2.73 0.59,4.85 1.78,6.37c1.18,1.52 2.65,2.27 4.4,2.27c2.21,0 4.08,-1.17 5.63,-3.51c2.14,-3.22 3.21,-7.2 3.21,-11.96zm17.36,-14.33l7.71,0l-0.8,4.76c1.99,-2.09 3.82,-3.54 5.48,-4.36c1.66,-0.81 3.37,-1.22 5.14,-1.22c2.4,0 4.33,0.83 5.77,2.51c1.44,1.68 2.16,3.97 2.16,6.89c0,1.26 -0.29,3.68 -0.88,7.27l-3.52,20.74l-8.14,0l3.56,-20.74c0.52,-3.1 0.79,-4.96 0.79,-5.58c0,-1.31 -0.32,-2.31 -0.95,-3.01c-0.63,-0.7 -1.44,-1.05 -2.45,-1.05c-1.1,0 -2.22,0.43 -3.36,1.31c-1.65,1.23 -2.88,2.71 -3.68,4.42c-0.8,1.71 -1.6,4.92 -2.41,9.63l-2.59,15.02l-8.1,0l6.27,-36.59z" id="svg_10"/>
  </g>
  <use fill="#579ac8" id="svg_13" transform="matrix(0.497525 0 0 0.497525 -135.723 -184.583)" x="500.99" xlink:href="#svg_12" y="406.2"/>
 </g>
 <defs>
  <symbol height="800px" id="svg_12" version="1.1" viewBox="0 0 511.999 511.999" width="800px" xml:space="preserve" xmlns="http://www.w3.org/2000/svg" xmlns:xlink="http://www.w3.org/1999/xlink">
   <g>
    <g>
     <g>
      <path d="m201.24,198.35c-11.9,0 -21.59,9.79 -21.59,21.87c0,12.08 9.69,21.88 21.59,21.88c11.92,0 21.61,-9.8 21.61,-21.88c0,-12.09 -9.69,-21.87 -21.61,-21.87z"/>
      <path d="m310.6,198.18c-12.02,0 -21.77,9.87 -21.77,22.04s9.75,22.04 21.77,22.04c12,0 21.75,-9.86 21.75,-22.04c0,-12.18 -9.75,-22.04 -21.75,-22.04z"/>
      <path d="m466.08,380.09c13.22,-26.43 20.06,-56.32 20.12,-88.82l25.8,-6l-7.44,-32.05l-20.68,4.8c-2.47,-17.71 -6.88,-35.29 -13.12,-52.36c18.38,-51.98 20.38,-112.2 5.48,-170.76l-4.14,-16.26l-16.17,4.45c-6.98,1.92 -67.58,19.19 -96.44,47.1c-4.26,-2.47 -8.58,-4.81 -12.98,-6.99c-28.94,-14.36 -59.4,-21.64 -90.51,-21.64c-31.12,0 -61.57,7.28 -90.52,21.64c-4.39,2.18 -8.71,4.52 -12.97,6.99c-28.86,-27.9 -89.46,-45.18 -96.45,-47.1l-16.17,-4.45l-4.14,16.26c-14.89,58.56 -12.9,118.78 5.48,170.76c-6.23,17.07 -10.64,34.66 -13.12,52.36l-20.67,-4.8l-7.44,32.05l25.8,6c0.06,32.5 6.9,62.39 20.11,88.82l-45.91,10.66l7.44,32.05l56.97,-13.22c8.61,11.17 18.61,21.49 29.98,30.86c41.39,34.12 98.78,52.92 161.61,52.92s120.22,-18.8 161.61,-52.92c11.37,-9.38 21.37,-19.69 29.98,-30.86l56.97,13.22l7.44,-32.05l-45.92,-10.66zm-402.22,-320.1c18.77,6.44 44.85,17.08 60.59,29.36c-11.29,8.97 -21.95,19.07 -31.9,30.28c-11.14,12.55 -21.02,26.11 -29.55,40.39c-5.93,-31.84 -5.68,-65.99 0.85,-100.03l0.01,0zm170.67,289.35c-8.51,-8.51 -12.97,-17.44 -12.97,-21.86c0,-3.96 0.68,-4.24 3.2,-5.3c7.17,-3.02 21.26,-3.37 31.24,-3.37s24.07,0.35 31.24,3.37c2.52,1.06 3.19,1.34 3.19,5.3c0,4.42 -4.45,13.35 -12.96,21.86c-8.37,8.37 -17.31,12.88 -21.47,12.88s-13.1,-4.52 -21.47,-12.88zm198.28,23.02l-63.4,-14.72l-7.45,32.05l49.52,11.5c-4.58,4.86 -9.51,9.49 -14.8,13.86c-31.95,26.34 -75.59,42.02 -124.23,44.91l0,-68.12c12.92,-4.98 23.44,-14.39 28.28,-19.23c6.8,-6.79 22.61,-24.79 22.61,-45.13c0,-16.65 -8.29,-29.3 -23.34,-35.63c-10.03,-4.22 -22.78,-5.94 -44,-5.94c-21.22,0 -33.97,1.72 -44,5.94c-15.05,6.33 -23.34,18.98 -23.34,35.63c0,20.34 15.81,38.34 22.61,45.13c4.84,4.84 15.36,14.25 28.28,19.23l0,68.12c-48.64,-2.88 -92.28,-18.57 -124.23,-44.91c-5.3,-4.37 -10.22,-9 -14.8,-13.86l49.52,-11.5l-7.45,-32.05l-63.41,14.72c-12.28,-21.61 -19.16,-46.33 -20.3,-73.41l83.71,19.44l7.44,-32.06l-89.73,-20.84c5.57,-44.7 25.61,-88.81 56.86,-124.02c38.35,-43.21 87.66,-67.01 138.84,-67.01c51.18,0 100.48,23.8 138.84,67.01c31.25,35.21 51.28,79.32 56.86,124.03l-89.74,20.83l7.45,32.06l83.7,-19.44c-1.14,27.08 -8.01,51.8 -20.3,73.41zm16.19,-212.34c-8.54,-14.28 -18.41,-27.84 -29.55,-40.39c-9.95,-11.21 -20.61,-21.31 -31.9,-30.28c15.72,-12.25 41.81,-22.9 60.59,-29.35c6.54,34.04 6.78,68.18 0.86,100.02z"/>
     </g>
    </g>
   </g>
  </symbol>
 </defs>
</svg>