<?xml version="1.0"?>
<svg width="615.034" height="606.872" xmlns="http://www.w3.org/2000/svg" xmlns:svg="http://www.w3.org/2000/svg" xmlns:xlink="http://www.w3.org/1999/xlink">
 <g class="layer">
  <title>Layer 1</title>
  <path d="m577.5,523.98c-9.22,-20.22 -33.09,-29.12 -53.32,-19.9s-29.12,33.09 -19.9,53.32s33.09,29.12 53.32,19.9a40.25,40.25 0 0 0 19.38,-18.81l-8.04,-3.82c-7.68,15.48 -26.46,21.8 -41.94,14.12s-21.8,-26.46 -14.12,-41.94c7.69,-15.48 26.46,-21.8 41.94,-14.12a31.29,31.29 0 0 1 14.58,15.07l8.1,-3.82z" fill="#A7A8AB" id="svg_1"/>
  <path d="m486.5,580.71l0,-80.05l-10.5,0l-32.51,66l-32.51,-66l-10.63,0l0,80.05l9.33,0l0,-60.89l30.07,60.89l7.48,0l30.05,-60.89l0,60.89l9.22,0z" fill="#A7A8AB" id="svg_6"/>
  <path d="m292.76,527.68a24.44,24.44 0 0 0 -18.21,-7.71a23.41,23.41 0 0 0 -9.59,1.92a36.73,36.73 0 0 0 -8.35,5.16l0,-6.22l-9.76,0l0,59.94l9.76,0l0,-34.1a17.84,17.84 0 0 1 4.79,-12.69c6.68,-6.78 17.6,-6.86 24.39,-0.18l0.19,0.18a17.89,17.89 0 0 1 4.79,12.64l0,34.08l9.48,0l0,-34.58a25.64,25.64 0 0 0 -7.47,-18.45m-129.46,36.89a28.62,28.62 0 0 1 -11.21,11.92a31.22,31.22 0 0 1 -16.14,4.27l-14.48,0l0,19.78l-9.22,0l0,-79.7l23.29,0a30.92,30.92 0 0 1 22.07,8.66c9.56,9.09 11.89,23.43 5.7,35.07m-41.83,7.47l13.3,0a21.87,21.87 0 0 0 15.54,-6.09a19.81,19.81 0 0 0 6.37,-15.08a19.32,19.32 0 0 0 -6.22,-14.78a21.74,21.74 0 0 0 -15.4,-5.79l-13.58,0l0,41.73zm117.36,-18.19a10.54,10.54 0 0 0 0.32,-3.14c0,-17.02 -14.45,-30.8 -32.28,-30.8c-17.83,0 -32.28,13.83 -32.28,30.8c0,16.97 14.45,30.8 32.28,30.8a32.29,32.29 0 0 0 27.51,-15.03l-7.5,-5.65a22.8,22.8 0 0 1 -20.01,11.53c-11.98,0.68 -22.26,-8.49 -22.94,-20.48s8.5,-22.26 20.48,-22.94a21.33,21.33 0 0 1 2.45,0a22.59,22.59 0 0 1 21.56,15.09c0,0.15 0.34,1.45 0.39,1.61l-35.76,0l0,8.11l45.77,0.1zm-145.84,-14.34c0,18.5 -14.99,33.5 -33.5,33.5c-18.5,0 -33.5,-14.99 -33.5,-33.5c0,-18.5 14.99,-33.5 33.5,-33.5c18.5,0 33.5,14.99 33.5,33.5m9.51,0c0,-23.76 -19.26,-43.02 -43.03,-43.02s-43.02,19.25 -43.02,43.02c0,23.76 19.26,43.02 43.02,43.02s43.03,-19.26 43.03,-43.02" fill="#636567" id="svg_7"/>
  <path d="m380.26,557.11c0.03,8.41 -6.77,15.25 -15.18,15.26l-34.8,0l0,-30.53l34.82,0c8.4,0.04 15.19,6.87 15.18,15.26m-5.15,-35.81c0,6.28 -5.07,11.38 -11.35,11.42l-33.47,0l0,-22.86l33.38,0c6.29,0.03 11.37,5.13 11.35,11.42m2.12,15.07c8.39,-7.39 9.2,-20.17 1.81,-28.56a20.24,20.24 0 0 0 -14.6,-6.85l-43.38,0l0,80.36l45.9,0c13.28,-0.98 23.26,-12.54 22.27,-25.83a24.13,24.13 0 0 0 -11.98,-19.11" fill="#A7A8AB" id="svg_8"/>
  <g fill="#99C248" id="svg_9">
   <path d="m21.05,480.64l8.81,-51.45l14.46,0c3.86,0 6.61,0.24 8.25,0.73c2.55,0.75 4.51,2.14 5.9,4.18c1.38,2.04 2.07,4.55 2.07,7.55c0,3.02 -0.66,5.54 -2,7.58s-3.34,3.58 -6,4.63c2.08,0.7 3.75,1.97 4.99,3.8c1.25,1.82 1.88,3.95 1.88,6.39c0,3.32 -0.75,6.33 -2.26,9.02c-1.52,2.69 -3.48,4.63 -5.9,5.81c-2.43,1.18 -5.86,1.77 -10.3,1.77l-19.91,0zm10.08,-8.28l8.37,0c3.28,0 5.53,-0.23 6.76,-0.7c1.22,-0.47 2.24,-1.32 3.06,-2.58s1.23,-2.66 1.23,-4.23c0,-1.85 -0.54,-3.3 -1.61,-4.35s-2.78,-1.59 -5.09,-1.59l-10.39,0l-2.31,13.45zm3.85,-22.4l6.64,0c2.9,0 4.98,-0.23 6.25,-0.7a5.85,5.85 0 0 0 2.99,-2.41c0.72,-1.15 1.09,-2.47 1.09,-3.93c0,-1.19 -0.28,-2.21 -0.8,-3.04s-1.22,-1.39 -2.04,-1.67c-0.83,-0.28 -2.59,-0.42 -5.31,-0.42l-6.71,0l-2.1,12.18zm34.08,-6.6l8.3,0l-3.78,22c-0.45,2.64 -0.66,4.29 -0.66,4.96c0,1.14 0.33,2.1 0.99,2.85c0.66,0.76 1.47,1.15 2.41,1.15c1.11,0 2.21,-0.4 3.3,-1.19c1.53,-1.1 2.74,-2.54 3.65,-4.3c0.91,-1.77 1.68,-4.34 2.31,-7.71l3.31,-17.76l8.29,0l-6.92,37.28l-7.75,0l0.92,-5.05c-3.36,3.92 -6.99,5.89 -10.88,5.89c-2.46,0 -4.41,-0.86 -5.86,-2.58c-1.45,-1.72 -2.17,-4.09 -2.17,-7.1c0,-1.26 0.33,-3.82 0.99,-7.65l3.55,-20.79zm36.69,0l8.25,0l-6.4,37.28l-8.24,0l6.39,-37.28zm2.43,-14.17l8.28,0l-1.58,9.12l-8.25,0l1.55,-9.12zm7.68,51.45l8.81,-51.45l8.28,0l-8.85,51.45l-8.24,0zm17.93,-29.8l1.34,-7.48l4.27,0l1.04,-5.96l9.63,-7.05l-2.36,13.01l5.22,0l-1.27,7.48l-5.3,0l-2.89,15.57c-0.5,2.8 -0.74,4.43 -0.74,4.88c0,0.84 0.22,1.46 0.66,1.86c0.45,0.41 1.21,0.61 2.3,0.61c0.35,0 1.29,-0.08 2.85,-0.24l-1.37,7.47a20.22,20.22 0 0 1 -4.43,0.5c-2.87,0 -5.02,-0.66 -6.45,-1.97s-2.14,-3.23 -2.14,-5.76c0,-1.17 0.38,-3.82 1.12,-7.94l2.75,-14.99l-4.23,0zm35.59,14.33c0,-6.11 1.39,-11.31 4.15,-15.59c3.07,-4.7 7.5,-7.05 13.3,-7.05c4.36,0 7.83,1.47 10.41,4.42c2.59,2.94 3.88,7.05 3.88,12.32c0,6.17 -1.61,11.42 -4.83,15.74c-3.22,4.32 -7.43,6.48 -12.62,6.48c-4.23,0 -7.67,-1.47 -10.31,-4.39c-2.65,-2.92 -3.97,-6.91 -3.97,-11.93zm23.56,-7.2c0,-2.46 -0.58,-4.38 -1.74,-5.79c-1.16,-1.41 -2.63,-2.11 -4.41,-2.11c-1.51,0 -2.91,0.52 -4.23,1.55c-1.31,1.03 -2.46,2.82 -3.44,5.37a21.84,21.84 0 0 0 -1.48,7.94c0,2.78 0.6,4.94 1.81,6.49c1.2,1.55 2.7,2.31 4.48,2.31c2.25,0 4.16,-1.19 5.74,-3.58c2.18,-3.28 3.27,-7.34 3.27,-12.19zm17.69,-14.6l7.86,0l-0.82,4.85c2.03,-2.13 3.89,-3.61 5.58,-4.44c1.69,-0.83 3.43,-1.24 5.24,-1.24c2.45,0 4.41,0.85 5.88,2.56c1.47,1.71 2.2,4.05 2.2,7.02c0,1.28 -0.3,3.75 -0.9,7.41l-3.59,21.13l-8.29,0l3.63,-21.13c0.53,-3.16 0.8,-5.05 0.8,-5.69c0,-1.33 -0.33,-2.35 -0.97,-3.07c-0.64,-0.71 -1.47,-1.07 -2.5,-1.07c-1.12,0 -2.26,0.44 -3.42,1.33c-1.68,1.25 -2.93,2.76 -3.75,4.5c-0.82,1.74 -1.63,5.01 -2.46,9.81l-2.64,15.3l-8.25,0l6.39,-37.28z" id="svg_10"/>
  </g>
  <use fill="#579ac8" id="svg_13" transform="matrix(0.498208 0 0 0.498208 -260.107 -86.5683)" x="725.33" xlink:href="#svg_12" y="227.46"/>
 </g>
 <defs>
  <symbol height="800px" id="svg_12" version="1.1" viewBox="0 0 511.999 511.999" width="800px" xml:space="preserve" xmlns="http://www.w3.org/2000/svg" xmlns:xlink="http://www.w3.org/1999/xlink">
   <g>
    <g>
     <g>
      <path d="m201.24,198.35c-11.9,0 -21.59,9.79 -21.59,21.87c0,12.08 9.69,21.88 21.59,21.88c11.92,0 21.61,-9.8 21.61,-21.88c0,-12.09 -9.69,-21.87 -21.61,-21.87z"/>
      <path d="m310.6,198.18c-12.02,0 -21.77,9.87 -21.77,22.04s9.75,22.04 21.77,22.04c12,0 21.75,-9.86 21.75,-22.04c0,-12.18 -9.75,-22.04 -21.75,-22.04z"/>
      <path d="m466.08,380.09c13.22,-26.43 20.06,-56.32 20.12,-88.82l25.8,-6l-7.44,-32.05l-20.68,4.8c-2.47,-17.71 -6.88,-35.29 -13.12,-52.36c18.38,-51.98 20.38,-112.2 5.48,-170.76l-4.14,-16.26l-16.17,4.45c-6.98,1.92 -67.58,19.19 -96.44,47.1c-4.26,-2.47 -8.58,-4.81 -12.98,-6.99c-28.94,-14.36 -59.4,-21.64 -90.51,-21.64c-31.12,0 -61.57,7.28 -90.52,21.64c-4.39,2.18 -8.71,4.52 -12.97,6.99c-28.86,-27.9 -89.46,-45.18 -96.45,-47.1l-16.17,-4.45l-4.14,16.26c-14.89,58.56 -12.9,118.78 5.48,170.76c-6.23,17.07 -10.64,34.66 -13.12,52.36l-20.67,-4.8l-7.44,32.05l25.8,6c0.06,32.5 6.9,62.39 20.11,88.82l-45.91,10.66l7.44,32.05l56.97,-13.22c8.61,11.17 18.61,21.49 29.98,30.86c41.39,34.12 98.78,52.92 161.61,52.92s120.22,-18.8 161.61,-52.92c11.37,-9.38 21.37,-19.69 29.98,-30.86l56.97,13.22l7.44,-32.05l-45.92,-10.66zm-402.22,-320.1c18.77,6.44 44.85,17.08 60.59,29.36c-11.29,8.97 -21.95,19.07 -31.9,30.28c-11.14,12.55 -21.02,26.11 -29.55,40.39c-5.93,-31.84 -5.68,-65.99 0.85,-100.03l0.01,0zm170.67,289.35c-8.51,-8.51 -12.97,-17.44 -12.97,-21.86c0,-3.96 0.68,-4.24 3.2,-5.3c7.17,-3.02 21.26,-3.37 31.24,-3.37s24.07,0.35 31.24,3.37c2.52,1.06 3.19,1.34 3.19,5.3c0,4.42 -4.45,13.35 -12.96,21.86c-8.37,8.37 -17.31,12.88 -21.47,12.88s-13.1,-4.52 -21.47,-12.88zm198.28,23.02l-63.4,-14.72l-7.45,32.05l49.52,11.5c-4.58,4.86 -9.51,9.49 -14.8,13.86c-31.95,26.34 -75.59,42.02 -124.23,44.91l0,-68.12c12.92,-4.98 23.44,-14.39 28.28,-19.23c6.8,-6.79 22.61,-24.79 22.61,-45.13c0,-16.65 -8.29,-29.3 -23.34,-35.63c-10.03,-4.22 -22.78,-5.94 -44,-5.94c-21.22,0 -33.97,1.72 -44,5.94c-15.05,6.33 -23.34,18.98 -23.34,35.63c0,20.34 15.81,38.34 22.61,45.13c4.84,4.84 15.36,14.25 28.28,19.23l0,68.12c-48.64,-2.88 -92.28,-18.57 -124.23,-44.91c-5.3,-4.37 -10.22,-9 -14.8,-13.86l49.52,-11.5l-7.45,-32.05l-63.41,14.72c-12.28,-21.61 -19.16,-46.33 -20.3,-73.41l83.71,19.44l7.44,-32.06l-89.73,-20.84c5.57,-44.7 25.61,-88.81 56.86,-124.02c38.35,-43.21 87.66,-67.01 138.84,-67.01c51.18,0 100.48,23.8 138.84,67.01c31.25,35.21 51.28,79.32 56.86,124.03l-89.74,20.83l7.45,32.06l83.7,-19.44c-1.14,27.08 -8.01,51.8 -20.3,73.41zm16.19,-212.34c-8.54,-14.28 -18.41,-27.84 -29.55,-40.39c-9.95,-11.21 -20.61,-21.31 -31.9,-30.28c15.72,-12.25 41.81,-22.9 60.59,-29.35c6.54,34.04 6.78,68.18 0.86,100.02z"/>
     </g>
    </g>
   </g>
  </symbol>
 </defs>
</svg>